<svg width="380" height="142" viewBox="0 0 380 142" fill="none" xmlns="http://www.w3.org/2000/svg">
<g filter="url(#filter0_d_3439_43)">
<path d="M26.1198 35.5833C26.8201 29.5206 32.0669 25 38.2432 25H341.941C348.232 25 353.533 29.6868 354.126 35.8747C356.606 61.7485 356.62 79.3158 354.195 103.233C353.573 109.376 348.29 114 342.041 114H38.3134C32.1069 114 26.8471 109.436 26.163 103.341C23.3501 78.2814 23.2235 60.6584 26.1198 35.5833Z" fill="#CCA665"/>
<path d="M25.4351 37.1306C26.0097 31.2849 26.297 28.3622 27.7204 25.9885C28.9434 23.949 30.8743 22.2 33.0254 21.1833C35.529 20 38.591 20 44.715 20H335.308C341.571 20 344.702 20 347.227 21.2078C349.411 22.2521 351.327 24.0147 352.549 26.1027C353.961 28.5174 354.213 31.5441 354.714 37.5974C356.401 57.9903 356.426 73.5784 354.803 92.5783C354.294 98.5321 354.04 101.509 352.626 103.917C351.408 105.989 349.477 107.76 347.307 108.796C344.786 110 341.679 110 335.467 110H44.8273C38.6647 110 35.5834 110 33.0779 108.815C30.9174 107.793 28.9982 106.052 27.7715 104.002C26.349 101.625 26.0621 98.6666 25.4883 92.7505C23.5538 72.804 23.4729 57.0939 25.4351 37.1306Z" fill="url(#paint0_linear_3439_43)"/>
<path d="M95.372 70.608L95.932 76.544C96.016 77.272 96.072 77.608 96.268 77.888V78H93.02C92.852 77.636 92.768 77.328 92.712 76.432L92.292 70.692C92.152 69.6 91.76 69.292 90.668 69.292H89.632V78H86.412V55.46H91.592C94.448 55.46 95.848 56.776 95.848 59.52V63.272C95.848 65.848 94.672 67.22 92.656 67.276V67.388C94.308 67.472 95.12 68.452 95.372 70.608ZM92.6 64.448V59.94C92.6 58.988 92.096 58.428 91.088 58.428H89.632V66.1H91.06C92.04 66.1 92.6 65.512 92.6 64.448ZM105.132 78.252H105.104C101.772 78.252 100.092 76.264 100.092 72.484V60.948C100.092 57.168 101.8 55.208 105.104 55.208H105.132C108.464 55.208 110.172 57.168 110.172 60.948V72.484C110.172 76.264 108.408 78.252 105.132 78.252ZM105.076 75.2H105.16C106.336 75.2 106.896 74.304 106.896 72.428V61.004C106.896 59.156 106.308 58.232 105.16 58.232H105.076C103.928 58.232 103.34 59.156 103.34 61.004V72.428C103.34 74.304 103.928 75.2 105.076 75.2ZM114.817 58.708V55.46H117.981V60.808C117.981 62.012 117.309 62.684 116.105 62.684H114.817V61.256H115.685C116.357 61.256 116.637 61.004 116.637 60.36V58.708H114.817ZM129.03 78H125.81V70.356L122.002 55.46H125.558L127.378 66.94H127.546L129.31 55.46H132.866L129.03 70.356V78ZM139.873 78H136.261L139.341 66.716L136.261 55.46H139.845L141.553 64.392H141.749L143.541 55.46H146.985L143.877 66.716L146.985 78H143.401L141.721 69.124H141.553L139.873 78ZM153.627 78H150.295L153.319 55.46H158.331L161.355 78H158.023L157.435 72.372H154.215L153.627 78ZM155.755 58.68L154.691 69.292H156.959L155.923 58.68H155.755ZM166.207 58.428H163.491V55.46H172.143V58.428H169.427V78H166.207V58.428ZM180.934 55.432C184.322 55.432 186.002 57.224 186.002 60.752V72.708C186.002 76.208 184.322 78 180.934 78H176.258V55.432H180.934ZM182.726 72.652V60.78C182.726 59.24 182.054 58.456 180.738 58.456H179.478V74.976H180.738C182.054 74.976 182.726 74.192 182.726 72.652ZM192.734 78H189.402L192.426 55.46H197.438L200.462 78H197.13L196.542 72.372H193.322L192.734 78ZM194.862 58.68L193.798 69.292H196.066L195.03 58.68H194.862ZM207.273 78H204.417V55.46H209.149L212.593 74.052H212.761C212.677 72.4 212.593 71.056 212.593 69.712V55.46H215.337V78H210.577L207.329 58.736H207.161C207.217 60.192 207.273 61.676 207.273 63.132V78ZM232.307 78.252H232.279C228.947 78.252 227.267 76.264 227.267 72.484V60.948C227.267 57.168 228.975 55.208 232.279 55.208H232.307C235.639 55.208 237.347 57.168 237.347 60.948V72.484C237.347 76.264 235.583 78.252 232.307 78.252ZM232.251 75.2H232.335C233.511 75.2 234.071 74.304 234.071 72.428V61.004C234.071 59.156 233.483 58.232 232.335 58.232H232.251C231.103 58.232 230.515 59.156 230.515 61.004V72.428C230.515 74.304 231.103 75.2 232.251 75.2ZM241.993 58.708V55.46H245.157V60.808C245.157 62.012 244.485 62.684 243.281 62.684H241.993V61.256H242.861C243.533 61.256 243.813 61.004 243.813 60.36V58.708H241.993ZM252.006 58.428H249.29V55.46H257.942V58.428H255.226V78H252.006V58.428ZM265.277 78H262.057V55.46H265.277V78ZM274.701 78.252H274.673C271.481 78.252 269.885 76.796 269.745 73.66L269.717 69.544H272.965L272.993 73.548C273.049 74.696 273.609 75.2 274.645 75.2H274.673C275.709 75.2 276.241 74.78 276.241 73.716V70.384C276.241 69.432 275.961 68.872 274.729 68.48L272.909 67.808C270.837 67.164 269.801 65.652 269.801 63.608V59.604C269.801 56.664 271.453 55.208 274.505 55.208H274.533C277.669 55.208 279.237 56.692 279.377 59.688L279.405 64.056H276.157L276.129 59.772C276.073 58.736 275.569 58.232 274.561 58.232H274.505C273.581 58.232 273.077 58.68 273.077 59.716V63.244C273.077 64.224 273.497 64.784 274.673 65.176L276.073 65.708C278.313 66.464 279.517 67.808 279.517 69.964V73.772C279.517 76.74 277.949 78.252 274.701 78.252ZM287.256 78H284.036V55.432L287.256 55.46V65.624H290.364V55.46H293.584V78H290.364V68.62H287.256V78Z" fill="black"/>
</g>
<defs>
<filter id="filter0_d_3439_43" x="0" y="0" width="380" height="142" filterUnits="userSpaceOnUse" color-interpolation-filters="sRGB">
<feFlood flood-opacity="0" result="BackgroundImageFix"/>
<feColorMatrix in="SourceAlpha" type="matrix" values="0 0 0 0 0 0 0 0 0 0 0 0 0 0 0 0 0 0 127 0" result="hardAlpha"/>
<feOffset dy="4"/>
<feGaussianBlur stdDeviation="12"/>
<feComposite in2="hardAlpha" operator="out"/>
<feColorMatrix type="matrix" values="0 0 0 0 1 0 0 0 0 0.913725 0 0 0 0 0.65098 0 0 0 0.55 0"/>
<feBlend mode="normal" in2="BackgroundImageFix" result="effect1_dropShadow_3439_43"/>
<feBlend mode="normal" in="SourceGraphic" in2="effect1_dropShadow_3439_43" result="shape"/>
</filter>
<linearGradient id="paint0_linear_3439_43" x1="356" y1="65.1962" x2="24" y2="65.1962" gradientUnits="userSpaceOnUse">
<stop offset="0.0364495" stop-color="#FECC63"/>
<stop offset="0.407954" stop-color="#FFE7B9"/>
<stop offset="0.911465" stop-color="#FED48C"/>
</linearGradient>
</defs>
</svg>
