<svg width="66" height="42" viewBox="0 0 66 42" fill="none" xmlns="http://www.w3.org/2000/svg">
<path d="M0.151807 32.424C-0.0464148 32.2317 -0.0512504 31.9152 0.141006 31.717C0.333263 31.5187 0.649809 31.5139 0.848031 31.7062L0.499919 32.0651L0.151807 32.424ZM61.2368 0.138154C61.4366 -0.0524196 61.7531 -0.0449066 61.9437 0.154935L65.0493 3.41153C65.2398 3.61137 65.2323 3.92787 65.0325 4.11844C64.8326 4.30901 64.5161 4.3015 64.3256 4.10166L61.5651 1.20691L58.6703 3.96741C58.4705 4.15799 58.154 4.15047 57.9634 3.95063C57.7728 3.75079 57.7803 3.4343 57.9802 3.24372L61.2368 0.138154ZM0.499919 32.0651L0.848031 31.7062C20.182 50.4583 60.1542 39.5707 61.082 0.488132L61.5818 0.499998L62.0817 0.511864C61.134 40.4349 20.1344 51.8053 0.151807 32.424L0.499919 32.0651Z" fill="#FECC63"/>
</svg>
