<svg width="63" height="45" viewBox="0 0 63 45" fill="none" xmlns="http://www.w3.org/2000/svg">
<path d="M0.179022 36.8403C-0.0327572 36.6631 -0.060779 36.3478 0.116433 36.136C0.293646 35.9242 0.608986 35.8962 0.820765 36.0734L0.499893 36.4568L0.179022 36.8403ZM58.7335 0.164437C58.9189 -0.0402702 59.2351 -0.0559727 59.4398 0.129364L62.7757 3.1496C62.9804 3.33494 62.9961 3.65113 62.8107 3.85584C62.6254 4.06054 62.3092 4.07625 62.1045 3.89091L59.1393 1.20626L56.4546 4.17149C56.2693 4.3762 55.9531 4.3919 55.7484 4.20656C55.5437 4.02123 55.528 3.70504 55.7133 3.50033L58.7335 0.164437ZM0.499893 36.4568L0.820765 36.0734C21.477 53.3581 60.5439 39.5703 58.6048 0.524819L59.1042 0.500019L59.6036 0.475218C61.5843 40.3604 21.5283 54.7049 0.179022 36.8403L0.499893 36.4568Z" fill="#FC223C"/>
</svg>
