<svg width="37" height="74" viewBox="0 0 37 74" fill="none" xmlns="http://www.w3.org/2000/svg">
<path d="M0.332926 73.0289C0.0726562 73.1211 -0.0635327 73.4069 0.0287397 73.6672C0.121012 73.9275 0.406804 74.0637 0.667074 73.9714L0.5 73.5001L0.332926 73.0289ZM30.5873 0.0338345C30.3298 -0.0658244 30.0402 0.0621569 29.9406 0.319689L28.3165 4.51641C28.2169 4.77395 28.3449 5.06351 28.6024 5.16317C28.8599 5.26283 29.1495 5.13484 29.2491 4.87731L30.6927 1.14689L34.4231 2.59048C34.6807 2.69014 34.9702 2.56215 35.0699 2.30462C35.1696 2.04709 35.0416 1.75753 34.784 1.65787L30.5873 0.0338345ZM0.5 73.5001L0.667074 73.9714C20.9852 66.7681 31.336 54.6092 35.1869 41.0732C39.0294 27.5667 36.3772 12.7714 30.8642 0.298008L30.4069 0.500137L29.9496 0.702267C35.4024 13.0393 37.9839 27.5872 34.2251 40.7996C30.4746 53.9826 20.3891 65.9185 0.332926 73.0289L0.5 73.5001Z" fill="#FFD899"/>
</svg>
