<svg width="138" height="72" viewBox="0 0 138 72" fill="none" xmlns="http://www.w3.org/2000/svg">
<path d="M138 0C138 19.0956 130.73 37.4091 117.79 50.9117C104.85 64.4143 87.2999 72 69 72C50.7001 72 33.1496 64.4143 20.2096 50.9117C7.26963 37.4091 2.76321e-06 19.0956 0 1.08717e-05L138 0Z" fill="#FFEDDF"/>
<path d="M67.1667 53H52.5C51.4875 53 50.6667 52.1792 50.6667 51.1667V38.3333H67.1667V53ZM87.3333 51.1667C87.3333 52.1792 86.5126 53 85.5 53H70.8333V38.3333H87.3333V51.1667ZM78.7163 9C82.3379 9 85.5 11.7021 85.5 15.4167C85.5 19.1312 82.3379 21.8333 78.7163 21.8333H87.3333C88.2999 21.8333 89.2472 22.1644 89.9579 22.8753C90.6689 23.5863 91 24.5334 91 25.5V32.8333C91 33.8459 90.1792 34.6667 89.1667 34.6667H70.8333V23.6667H67.1667V34.6667H48.8333C47.8208 34.6667 47 33.8459 47 32.8333V25.5C47 24.5334 47.3311 23.5863 48.042 22.8753C48.7529 22.1644 49.7 21.8333 50.6667 21.8333H59.2837C55.6621 21.8333 52.5 19.1313 52.5 15.4167C52.5 11.7021 55.6621 9 59.2837 9C61.0497 9.00011 62.6414 9.83688 63.919 10.8047C65.2207 11.7909 66.3943 13.0637 67.3601 14.2708C67.9816 15.0478 68.5338 15.8228 69 16.5142C69.4662 15.8228 70.0184 15.0478 70.6399 14.2708C71.6057 13.0637 72.7792 11.7909 74.0811 10.8047C75.3585 9.83689 76.9503 9.00014 78.7163 9ZM59.2837 12.6667C57.4053 12.6667 56.1667 13.9979 56.1667 15.4167C56.1667 16.8354 57.4053 18.1667 59.2837 18.1667H65.6896C65.3328 17.6533 64.9324 17.1065 64.4972 16.5625C63.6298 15.4782 62.6727 14.4589 61.706 13.7266C60.7152 12.9759 59.9007 12.6668 59.2837 12.6667ZM78.7163 12.6667C78.0994 12.6668 77.2848 12.9759 76.2939 13.7266C75.3274 14.4589 74.3702 15.4782 73.5029 16.5625C73.0676 17.1065 72.6672 17.6533 72.3105 18.1667H78.7163C80.5947 18.1667 81.8333 16.8354 81.8333 15.4167C81.8333 13.9979 80.5947 12.6667 78.7163 12.6667Z" fill="#AE1414"/>
</svg>
