<svg width="140" height="5" viewBox="0 0 140 5" fill="none" xmlns="http://www.w3.org/2000/svg">
<path d="M139.136 3.44214C138.433 3.34426 137.785 3.30978 137.079 3.27216C136.372 3.23454 135.728 3.13981 135.025 3.04193C133.5 2.83991 132.038 2.58077 130.514 2.37876C127.642 1.98413 124.712 1.58636 121.83 1.3725C119.188 1.11092 116.483 0.906463 113.834 0.765396C113.127 0.727779 112.421 0.690161 111.774 0.655678C109.121 0.574868 106.472 0.433801 103.82 0.352991C97.629 0.204605 91.3792 0.0530836 85.182 0.0252099C79.1024 0.00360581 73.0229 -0.0179982 66.999 0.0237885C64.046 0.047817 61.0341 0.0687104 58.081 0.0927389C54.8272 0.221605 51.5797 0.22996 48.388 0.301705C41.7069 0.489778 35.088 0.620729 28.4069 0.808802C22.6121 0.983641 16.8665 1.34238 11.1114 1.88189C7.4294 2.2901 3.68537 2.75542 0.000210917 3.22389C4.16385 3.74774 8.39599 4.09396 12.6313 4.37992C15.3982 4.52726 18.1682 4.61433 20.8794 4.69828C22.6486 4.73207 24.4211 4.7056 26.2525 4.68227C27.3742 4.68157 28.4403 4.61749 29.5063 4.5534C32.4069 4.40572 35.3632 4.32144 38.2638 4.17376C41.6354 4.05117 44.9513 3.86518 48.3228 3.74258C51.7533 3.62312 55.2426 3.50679 58.673 3.38733C61.747 3.30931 64.8799 3.23443 68.0128 3.15955C71.0279 3.0784 74.0987 3.06065 77.1107 3.03975C80.1815 3.02199 83.1934 3.0011 86.2642 2.98334C89.3939 2.96872 92.4583 3.07147 95.5847 3.1171C101.249 3.17702 106.904 3.41771 112.617 3.66153C115.796 3.83081 118.922 3.87644 122.108 3.92521C125.234 3.97084 128.361 4.01647 131.431 3.99871C132.671 4.00429 133.969 4.013 135.212 3.95831C135.804 3.92941 136.455 3.90363 137.05 3.81447C137.586 3.72217 138.125 3.56961 138.658 3.53757C138.838 3.48672 138.959 3.43273 139.136 3.44214Z" fill="#FFDBA1"/>
</svg>
